<svg width="431" height="365" viewBox="0 0 431 365" fill="none" xmlns="http://www.w3.org/2000/svg">
<g clip-path="url(#clip0_283_96)">
<path d="M277.575 219.491H161.409C158.296 219.488 155.311 218.248 153.11 216.044C150.909 213.84 149.67 210.852 149.667 207.735V53.7418C149.67 50.625 150.909 47.6368 153.11 45.4329C155.311 43.229 158.296 41.9893 161.409 41.9857H277.575C280.689 41.9892 283.673 43.229 285.875 45.4329C288.076 47.6368 289.314 50.625 289.318 53.7418V207.735C289.314 210.852 288.076 213.84 285.875 216.044C283.673 218.248 280.689 219.488 277.575 219.491V219.491Z" fill="#E6E6E6"/>
<path d="M269.41 209.693H169.575C166.811 209.69 164.161 208.589 162.206 206.632C160.251 204.676 159.152 202.022 159.149 199.255V62.2219C159.152 59.4545 160.251 56.8014 162.206 54.8445C164.161 52.8877 166.811 51.787 169.575 51.7838H269.41C272.174 51.7869 274.824 52.8877 276.779 54.8445C278.733 56.8014 279.833 59.4545 279.836 62.2219V199.255C279.833 202.022 278.733 204.676 276.779 206.632C274.824 208.589 272.174 209.69 269.41 209.693V209.693Z" fill="white"/>
<path d="M259.451 77.8256H179.534C179.192 77.8261 178.852 77.7589 178.536 77.628C178.219 77.4971 177.931 77.305 177.689 77.0627C177.446 76.8203 177.254 76.5325 177.123 76.2157C176.992 75.8988 176.924 75.5592 176.924 75.2163C176.924 74.8733 176.992 74.5337 177.123 74.2169C177.254 73.9 177.446 73.6122 177.689 73.3699C177.931 73.1275 178.219 72.9354 178.536 72.8045C178.852 72.6736 179.192 72.6064 179.534 72.6069H259.451C259.793 72.6064 260.132 72.6736 260.449 72.8045C260.766 72.9354 261.054 73.1275 261.296 73.3699C261.538 73.6122 261.731 73.9 261.862 74.2169C261.993 74.5337 262.061 74.8733 262.061 75.2163C262.061 75.5592 261.993 75.8988 261.862 76.2157C261.731 76.5325 261.538 76.8203 261.296 77.0627C261.054 77.305 260.766 77.4971 260.449 77.628C260.132 77.7589 259.793 77.8261 259.451 77.8256V77.8256Z" fill="#E4E4E4"/>
<path d="M259.451 88.1363H179.534C178.843 88.1363 178.18 87.8614 177.691 87.372C177.202 86.8826 176.928 86.2189 176.928 85.5268C176.928 84.8347 177.202 84.171 177.691 83.6817C178.18 83.1923 178.843 82.9174 179.534 82.9174H259.451C260.142 82.9174 260.805 83.1923 261.294 83.6817C261.782 84.171 262.057 84.8347 262.057 85.5268C262.057 86.2189 261.782 86.8826 261.294 87.372C260.805 87.8614 260.142 88.1363 259.451 88.1363Z" fill="#E4E4E4"/>
<path d="M214.176 98.447H179.534C178.843 98.447 178.18 98.1721 177.691 97.6828C177.202 97.1934 176.928 96.5297 176.928 95.8376C176.928 95.1455 177.202 94.4818 177.691 93.9924C178.18 93.5031 178.843 93.2281 179.534 93.2281H214.176C214.867 93.2281 215.53 93.5031 216.019 93.9924C216.508 94.4818 216.782 95.1455 216.782 95.8376C216.782 96.5297 216.508 97.1934 216.019 97.6828C215.53 98.1721 214.867 98.447 214.176 98.447Z" fill="#E4E4E4"/>
<path d="M259.451 120.042H179.534C179.192 120.042 178.852 119.975 178.536 119.844C178.219 119.713 177.931 119.521 177.689 119.279C177.446 119.036 177.254 118.749 177.123 118.432C176.992 118.115 176.924 117.775 176.924 117.432C176.924 117.089 176.992 116.75 177.123 116.433C177.254 116.116 177.446 115.828 177.689 115.586C177.931 115.344 178.219 115.151 178.536 115.021C178.852 114.89 179.192 114.823 179.534 114.823H259.451C259.793 114.823 260.132 114.89 260.449 115.021C260.766 115.151 261.054 115.344 261.296 115.586C261.538 115.828 261.731 116.116 261.862 116.433C261.993 116.75 262.061 117.089 262.061 117.432C262.061 117.775 261.993 118.115 261.862 118.432C261.731 118.749 261.538 119.036 261.296 119.279C261.054 119.521 260.766 119.713 260.449 119.844C260.132 119.975 259.793 120.042 259.451 120.042V120.042Z" fill="#E4E4E4"/>
<path d="M259.451 130.352H179.534C178.843 130.352 178.18 130.077 177.691 129.588C177.202 129.099 176.928 128.435 176.928 127.743C176.928 127.051 177.202 126.387 177.691 125.898C178.18 125.408 178.843 125.133 179.534 125.133H259.451C260.142 125.133 260.805 125.408 261.294 125.898C261.782 126.387 262.057 127.051 262.057 127.743C262.057 128.435 261.782 129.099 261.294 129.588C260.805 130.077 260.142 130.352 259.451 130.352Z" fill="#E4E4E4"/>
<path d="M214.176 140.663H179.534C178.844 140.662 178.182 140.387 177.694 139.898C177.206 139.408 176.931 138.745 176.931 138.054C176.931 137.362 177.206 136.699 177.694 136.21C178.182 135.721 178.844 135.445 179.534 135.444H214.176C214.867 135.444 215.53 135.719 216.019 136.209C216.508 136.698 216.782 137.362 216.782 138.054C216.782 138.746 216.508 139.409 216.019 139.899C215.53 140.388 214.867 140.663 214.176 140.663Z" fill="#E4E4E4"/>
<path d="M259.451 162.258H179.534C179.192 162.258 178.852 162.191 178.536 162.06C178.219 161.929 177.931 161.737 177.689 161.495C177.446 161.252 177.254 160.965 177.123 160.648C176.992 160.331 176.924 159.991 176.924 159.648C176.924 159.305 176.992 158.966 177.123 158.649C177.254 158.332 177.446 158.044 177.689 157.802C177.931 157.56 178.219 157.368 178.536 157.237C178.852 157.106 179.192 157.039 179.534 157.039H259.451C259.793 157.039 260.132 157.106 260.449 157.237C260.766 157.368 261.054 157.56 261.296 157.802C261.538 158.044 261.731 158.332 261.862 158.649C261.993 158.966 262.061 159.305 262.061 159.648C262.061 159.991 261.993 160.331 261.862 160.648C261.731 160.965 261.538 161.252 261.296 161.495C261.054 161.737 260.766 161.929 260.449 162.06C260.132 162.191 259.793 162.258 259.451 162.258V162.258Z" fill="#E4E4E4"/>
<path d="M259.451 172.568H179.534C178.843 172.568 178.18 172.293 177.691 171.804C177.202 171.315 176.928 170.651 176.928 169.959C176.928 169.267 177.202 168.603 177.691 168.114C178.18 167.624 178.843 167.349 179.534 167.349H259.451C260.142 167.349 260.805 167.624 261.294 168.114C261.782 168.603 262.057 169.267 262.057 169.959C262.057 170.651 261.782 171.315 261.294 171.804C260.805 172.293 260.142 172.568 259.451 172.568V172.568Z" fill="#E4E4E4"/>
<path d="M214.176 182.879H179.534C178.843 182.879 178.18 182.604 177.691 182.115C177.202 181.626 176.928 180.962 176.928 180.27C176.928 179.578 177.202 178.914 177.691 178.425C178.18 177.935 178.843 177.66 179.534 177.66H214.176C214.867 177.66 215.53 177.935 216.019 178.425C216.508 178.914 216.782 179.578 216.782 180.27C216.782 180.962 216.508 181.626 216.019 182.115C215.53 182.604 214.867 182.879 214.176 182.879Z" fill="#E4E4E4"/>
<path d="M196.473 129.967L109.648 55.6161H51.3174V54.5209H110.052L197.184 129.134L196.473 129.967Z" fill="#2F2E41"/>
<path d="M51.3172 63.8312C56.1511 63.8312 60.0698 59.9081 60.0698 55.0686C60.0698 50.2292 56.1511 46.306 51.3172 46.306C46.4833 46.306 42.5646 50.2292 42.5646 55.0686C42.5646 59.9081 46.4833 63.8312 51.3172 63.8312Z" fill="#038C9F"/>
<path d="M82.5228 84.5424H2.60647C2.2642 84.5424 1.92528 84.4749 1.60906 84.3438C1.29285 84.2126 1.00552 84.0204 0.763502 83.7781C0.521481 83.5358 0.329501 83.2482 0.19852 82.9316C0.0675397 82.615 0.00012207 82.2757 0.00012207 81.9331C0.00012207 81.5904 0.0675397 81.2511 0.19852 80.9345C0.329501 80.6179 0.521481 80.3303 0.763502 80.088C1.00552 79.8457 1.29285 79.6535 1.60906 79.5224C1.92528 79.3912 2.2642 79.3237 2.60647 79.3237H82.5228C82.8651 79.3237 83.204 79.3912 83.5202 79.5224C83.8365 79.6535 84.1238 79.8457 84.3658 80.088C84.6078 80.3303 84.7998 80.6179 84.9308 80.9345C85.0617 81.2511 85.1292 81.5904 85.1292 81.9331C85.1292 82.2757 85.0617 82.615 84.9308 82.9316C84.7998 83.2482 84.6078 83.5358 84.3658 83.7781C84.1238 84.0204 83.8365 84.2126 83.5202 84.3438C83.204 84.4749 82.8651 84.5424 82.5228 84.5424Z" fill="#038C9F"/>
<path d="M82.5228 94.8532H2.60646C1.91519 94.8532 1.25222 94.5783 0.763412 94.0889C0.274605 93.5995 0 92.9358 0 92.2437C0 91.5517 0.274605 90.8879 0.763412 90.3986C1.25222 89.9092 1.91519 89.6343 2.60646 89.6343H82.5228C83.2141 89.6343 83.8771 89.9092 84.3659 90.3986C84.8547 90.8879 85.1293 91.5517 85.1293 92.2437C85.1293 92.9358 84.8547 93.5995 84.3659 94.0889C83.8771 94.5783 83.2141 94.8532 82.5228 94.8532V94.8532Z" fill="#038C9F"/>
<path d="M37.2483 105.164H2.60646C1.91519 105.164 1.25222 104.889 0.763412 104.4C0.274605 103.91 0 103.246 0 102.554C0 101.862 0.274605 101.199 0.763412 100.709C1.25222 100.22 1.91519 99.9449 2.60646 99.9449H37.2483C37.9396 99.9449 38.6025 100.22 39.0913 100.709C39.5801 101.199 39.8547 101.862 39.8547 102.554C39.8547 103.246 39.5801 103.91 39.0913 104.4C38.6025 104.889 37.9396 105.164 37.2483 105.164Z" fill="#038C9F"/>
<path d="M219.492 82.8281L306.624 8.21472H365.359V9.30995H307.028L220.203 83.6605L219.492 82.8281Z" fill="#2F2E41"/>
<path d="M365.359 17.5252C370.193 17.5252 374.112 13.6021 374.112 8.7626C374.112 3.92315 370.193 0 365.359 0C360.525 0 356.607 3.92315 356.607 8.7626C356.607 13.6021 360.525 17.5252 365.359 17.5252Z" fill="#038C9F"/>
<path d="M424.872 37.9292H344.955C344.613 37.9297 344.273 37.8626 343.957 37.7317C343.64 37.6008 343.352 37.4086 343.11 37.1663C342.868 36.9239 342.675 36.6361 342.544 36.3193C342.413 36.0025 342.345 35.6629 342.345 35.3199C342.345 34.9769 342.413 34.6373 342.544 34.3205C342.675 34.0037 342.868 33.7159 343.11 33.4735C343.352 33.2312 343.64 33.039 343.957 32.9081C344.273 32.7772 344.613 32.7101 344.955 32.7106H424.872C425.214 32.7101 425.554 32.7772 425.87 32.9081C426.187 33.039 426.475 33.2312 426.717 33.4735C426.959 33.7159 427.152 34.0037 427.283 34.3205C427.414 34.6373 427.482 34.9769 427.482 35.3199C427.482 35.6629 427.414 36.0025 427.283 36.3193C427.152 36.6361 426.959 36.9239 426.717 37.1663C426.475 37.4086 426.187 37.6008 425.87 37.7317C425.554 37.8626 425.214 37.9297 424.872 37.9292V37.9292Z" fill="#038C9F"/>
<path d="M424.872 48.2399H344.955C344.264 48.2399 343.601 47.965 343.112 47.4756C342.623 46.9863 342.349 46.3225 342.349 45.6305C342.349 44.9384 342.623 44.2747 343.112 43.7853C343.601 43.2959 344.264 43.021 344.955 43.021H424.872C425.214 43.021 425.553 43.0885 425.869 43.2196C426.185 43.3508 426.473 43.543 426.715 43.7853C426.957 44.0276 427.149 44.3153 427.28 44.6319C427.411 44.9484 427.478 45.2878 427.478 45.6305C427.478 45.9731 427.411 46.3125 427.28 46.629C427.149 46.9456 426.957 47.2333 426.715 47.4756C426.473 47.7179 426.185 47.9101 425.869 48.0413C425.553 48.1724 425.214 48.2399 424.872 48.2399Z" fill="#038C9F"/>
<path d="M379.597 58.5507H344.955C344.264 58.5507 343.601 58.2758 343.112 57.7864C342.623 57.297 342.349 56.6333 342.349 55.9412C342.349 55.2492 342.623 54.5855 343.112 54.0961C343.601 53.6067 344.264 53.3318 344.955 53.3318H379.597C380.288 53.3318 380.951 53.6067 381.44 54.0961C381.929 54.5855 382.204 55.2492 382.204 55.9412C382.204 56.6333 381.929 57.297 381.44 57.7864C380.951 58.2758 380.288 58.5507 379.597 58.5507V58.5507Z" fill="#038C9F"/>
<path d="M362.217 247.453C361.767 246.962 361.429 246.378 361.228 245.743C361.027 245.107 360.968 244.436 361.055 243.775C361.141 243.114 361.372 242.48 361.729 241.918C362.087 241.356 362.564 240.879 363.125 240.522L359.393 224.758L367.292 227.647L369.625 242.173C370.162 243.158 370.321 244.306 370.07 245.399C369.819 246.493 369.176 247.456 368.263 248.107C367.35 248.758 366.23 249.05 365.116 248.93C364.002 248.809 362.97 248.284 362.217 247.453V247.453Z" fill="#9E616A"/>
<path d="M343.223 181.394L346.393 189.554C346.393 189.554 345.035 197.715 347.299 199.528C349.563 201.342 348.657 201.342 348.657 202.702C348.735 203.677 349.018 204.625 349.486 205.485C349.954 206.344 350.597 207.095 351.374 207.688C353.186 209.048 361.337 236.703 361.337 236.703H369.488C369.224 234.595 369.224 232.463 369.488 230.356C369.94 227.183 368.129 219.022 367.224 217.662C366.318 216.302 367.224 214.489 367.224 211.769C367.224 209.048 365.412 207.688 365.412 203.155C365.412 198.621 359.978 163.26 360.431 159.18C360.884 155.1 355.903 151.473 355.903 151.473H351.374L343.223 181.394Z" fill="#E6E7E8"/>
<path d="M324.045 198.703L316.511 232.363L364.789 229.356L351.662 196.298L324.045 198.703Z" fill="#9E616A"/>
<path d="M429.281 325.214C427.843 330.416 425.599 335.36 422.631 339.865C415.997 349.907 406.503 357.587 396.068 363.733C395.345 364.164 394.611 364.585 393.878 365H386.558L386.303 364.415V364.409L386.005 363.733L385.968 363.654L385.952 363.733L385.66 365H382.066C381.769 364.58 381.476 364.159 381.189 363.733C380.769 363.111 380.365 362.483 379.983 361.844C379.307 360.727 378.703 359.568 378.175 358.374C378.111 358.241 378.058 358.108 378.005 357.975L378.244 357.714L377.25 353.361L379.249 353.031L377.059 346.267C377.139 346.017 377.229 345.767 377.325 345.517C378.553 342.404 380.86 340.078 383.597 338.125C386.415 336.108 389.694 334.49 392.708 332.808C394.122 332.015 395.515 331.18 396.871 330.296V330.291C398.604 329.168 400.285 327.967 401.915 326.688C401.943 326.67 401.97 326.651 401.995 326.63C402.018 326.614 402.039 326.596 402.059 326.577C409.367 320.861 415.551 313.835 420.297 305.859C420.298 305.859 420.298 305.859 420.299 305.858C420.3 305.858 420.3 305.858 420.301 305.857C420.301 305.857 420.302 305.856 420.302 305.855C420.302 305.855 420.302 305.854 420.302 305.853C420.462 305.598 420.611 305.342 420.759 305.082V305.076C422.703 301.73 424.376 298.233 425.762 294.619V294.614C425.868 294.348 425.964 294.082 426.064 293.815C426.203 294.05 426.336 294.284 426.463 294.518C426.464 294.518 426.465 294.518 426.465 294.518C426.466 294.519 426.466 294.519 426.467 294.519C426.467 294.52 426.468 294.521 426.468 294.521C426.468 294.522 426.469 294.523 426.468 294.523C431.625 303.757 432.114 314.879 429.281 325.214Z" fill="#056674"/>
<path d="M426.469 294.523C426.52 299.451 426.008 304.368 424.943 309.18C424.464 311.381 423.868 313.556 423.157 315.693C421.776 319.876 419.972 323.906 417.772 327.721C417.65 327.928 417.533 328.13 417.405 328.333V328.338C416.465 329.925 415.445 331.463 414.349 332.947C412.69 335.31 410.64 337.372 408.289 339.046C406.368 340.316 404.196 341.157 401.921 341.51C401.495 341.589 401.059 341.648 400.618 341.701C398.859 341.909 397.041 341.988 395.297 342.361C394.414 342.536 393.554 342.812 392.735 343.186C389.928 344.49 388.35 347.22 387.659 350.136C387.536 350.647 387.441 351.163 387.366 351.679C386.787 355.644 387.425 359.763 387.095 363.733C387.058 364.154 387.01 364.58 386.952 365H386.558L386.303 364.415V364.409C386.33 364.186 386.351 363.962 386.372 363.733C386.5 361.783 386.516 359.827 386.42 357.874C386.399 356.996 386.383 356.113 386.393 355.229C386.404 354.521 386.431 353.814 386.484 353.111V353.106C386.521 352.669 386.563 352.238 386.622 351.807C386.791 350.487 387.116 349.192 387.589 347.949C388.052 346.668 388.78 345.499 389.725 344.52C390.671 343.54 391.812 342.772 393.075 342.265C393.847 341.976 394.642 341.753 395.451 341.6C397.232 341.259 399.071 341.174 400.863 340.951C401.054 340.929 401.245 340.903 401.432 340.871C401.671 340.834 401.905 340.791 402.138 340.748C404.482 340.332 406.696 339.371 408.602 337.944C410.868 336.148 412.837 334.008 414.439 331.6C415.311 330.35 416.14 329.072 416.911 327.758C416.911 327.757 416.911 327.757 416.911 327.756C416.912 327.755 416.912 327.755 416.912 327.754C416.913 327.754 416.914 327.753 416.914 327.753C416.915 327.753 416.915 327.753 416.916 327.753C416.953 327.689 416.991 327.63 417.028 327.566L417.033 327.556C420.339 321.899 422.753 315.765 424.188 309.371C424.236 309.137 424.289 308.903 424.342 308.669C425.329 304.052 425.805 299.34 425.762 294.619V294.614C425.762 294.39 425.756 294.172 425.751 293.949C425.74 293.491 426.447 293.39 426.458 293.847C426.463 294.071 426.469 294.294 426.463 294.518C426.464 294.518 426.465 294.518 426.465 294.518C426.466 294.519 426.467 294.519 426.467 294.519C426.467 294.52 426.468 294.521 426.468 294.521C426.468 294.522 426.469 294.523 426.469 294.523V294.523Z" fill="#047C8D"/>
<path d="M417.102 328.188C419.127 329.218 421.453 329.494 423.663 328.966C425.872 328.438 427.823 327.141 429.165 325.306C429.436 324.934 428.871 324.496 428.6 324.869C427.353 326.579 425.536 327.788 423.477 328.275C421.418 328.762 419.253 328.497 417.373 327.527C416.964 327.316 416.695 327.979 417.102 328.188V328.188Z" fill="#047C8D"/>
<path d="M402.207 340.96C400.727 336.553 400.96 331.75 402.86 327.507C403.049 327.087 402.388 326.816 402.199 327.236C400.23 331.654 399.997 336.654 401.548 341.237C401.696 341.673 402.354 341.395 402.207 340.961V340.96Z" fill="#047C8D"/>
<path d="M424.548 308.734C423.681 308.499 422.886 308.052 422.235 307.433C421.583 306.815 421.095 306.044 420.815 305.19C420.672 304.752 420.014 305.031 420.156 305.466C420.47 306.408 421.01 307.259 421.728 307.944C422.446 308.629 423.321 309.127 424.276 309.396C424.364 309.429 424.462 309.427 424.548 309.39C424.635 309.354 424.704 309.286 424.743 309.201C424.778 309.113 424.777 309.014 424.741 308.927C424.704 308.84 424.635 308.77 424.548 308.734H424.548Z" fill="#047C8D"/>
<path d="M396.871 330.291V330.297C396.706 334.097 396.231 337.877 395.451 341.6V341.605C395.409 341.861 395.35 342.111 395.297 342.361C394.014 348.119 392.216 353.749 389.923 359.183C389.29 360.716 388.628 362.233 387.935 363.733C387.744 364.159 387.547 364.58 387.345 365H386.558L386.303 364.415V364.409L386.005 363.733L385.968 363.654L385.952 363.733L385.66 365H378.058L376.581 363.733L374.428 361.887L377.436 358.598L377.931 358.055L378.005 357.975L378.244 357.715L377.25 353.361L379.249 353.031L377.059 346.267L376.022 343.069L375.762 342.265L374.247 337.587L369.675 338.444L368.931 335.837C370.301 332.657 371.442 329.382 372.344 326.039C372.349 326.012 372.36 325.991 372.365 325.965C374.78 316.959 375.505 307.583 374.502 298.313V298.307C374.47 298.009 374.433 297.706 374.39 297.413V297.402C373.935 293.561 373.167 289.762 372.094 286.046C372.02 285.764 371.935 285.487 371.855 285.21C372.099 285.317 372.339 285.418 372.583 285.524L372.588 285.53H372.599C372.987 285.7 373.375 285.881 373.753 286.072C382.821 290.484 389.492 298.765 393.282 308.312C393.293 308.339 393.304 308.36 393.314 308.387C395.292 313.392 396.471 318.677 396.807 324.049C396.934 326.127 396.956 328.211 396.871 330.291V330.291Z" fill="#067484"/>
<path d="M383.076 365H382.236C381.971 364.569 381.684 364.148 381.397 363.733C380.939 363.089 380.468 362.46 379.983 361.844C379.563 361.312 379.143 360.785 378.723 360.258C378.287 359.71 377.856 359.162 377.436 358.598L377.931 358.055C378.01 358.161 378.09 358.268 378.175 358.374C379.536 360.168 381.009 361.892 382.268 363.733C382.55 364.148 382.821 364.569 383.076 365Z" fill="#048193"/>
<path d="M371.678 285.507C371.817 285.683 371.96 285.864 372.093 286.045C373.13 287.391 374.11 288.78 375.033 290.212C376.677 292.738 378.137 295.379 379.402 298.115C379.503 298.328 379.604 298.546 379.7 298.764C382.407 304.742 384.172 311.105 384.931 317.625C384.941 317.688 384.946 317.747 384.952 317.811C385.127 319.333 385.241 320.86 385.292 322.393C385.462 325.279 385.176 328.174 384.447 330.972C384.34 331.339 384.224 331.701 384.096 332.052C383.776 332.913 383.376 333.741 382.9 334.527C382.558 335.1 382.178 335.649 381.762 336.171C381.513 336.49 381.252 336.804 380.976 337.108C380.816 337.283 380.651 337.459 380.487 337.635C380.348 337.768 380.216 337.906 380.077 338.039C378.642 339.433 377.058 340.727 375.761 342.265L376.021 343.068C377.271 341.482 378.881 340.168 380.332 338.784C381.243 337.926 382.073 336.986 382.81 335.974C382.905 335.836 383.006 335.697 383.097 335.554C383.589 334.833 384.014 334.069 384.367 333.271C384.548 332.872 384.713 332.462 384.861 332.036C385.73 329.284 386.125 326.405 386.031 323.521C386.014 321.674 385.904 319.828 385.701 317.992C385.68 317.752 385.653 317.518 385.622 317.279C385.083 312.908 384.099 308.603 382.687 304.432C380.9 299.14 378.442 294.1 375.373 289.435C374.496 288.099 373.566 286.795 372.582 285.523C372.455 285.348 372.322 285.177 372.183 285.002C371.902 284.64 371.397 285.146 371.678 285.507Z" fill="#048193"/>
<path d="M385.369 318.059C387.605 317.66 389.628 316.479 391.075 314.725C392.521 312.972 393.299 310.76 393.267 308.486C393.265 308.393 393.227 308.305 393.161 308.24C393.096 308.175 393.007 308.138 392.914 308.137C392.822 308.135 392.732 308.17 392.665 308.234C392.597 308.298 392.557 308.385 392.553 308.478C392.586 310.595 391.862 312.655 390.511 314.285C389.16 315.915 387.272 317.008 385.187 317.367C384.734 317.446 384.918 318.137 385.369 318.059V318.059Z" fill="#048193"/>
<path d="M381.157 337.235C377.324 334.608 374.622 330.632 373.588 326.099C373.486 325.65 372.795 325.832 372.897 326.281C373.982 330.996 376.802 335.128 380.796 337.853C381.177 338.112 381.535 337.493 381.157 337.235V337.235Z" fill="#048193"/>
<path d="M379.614 298.038C378.781 298.372 377.877 298.495 376.985 298.393C376.093 298.292 375.24 297.971 374.502 297.458C374.125 297.194 373.767 297.813 374.142 298.076C374.959 298.638 375.902 298.992 376.888 299.106C377.873 299.22 378.872 299.091 379.796 298.729C379.886 298.703 379.962 298.643 380.009 298.561C380.057 298.48 380.071 298.384 380.05 298.293C380.026 298.201 379.966 298.123 379.885 298.075C379.803 298.028 379.706 298.014 379.614 298.038V298.038Z" fill="#048193"/>
<path d="M332.084 354.057H326.661L324.081 333.115L332.085 333.116L332.084 354.057Z" fill="#9E616A"/>
<path d="M335.002 364.367H331.153L330.466 360.729L328.707 364.367H318.501C318.012 364.367 317.535 364.21 317.141 363.92C316.747 363.63 316.456 363.221 316.31 362.753C316.165 362.286 316.172 361.784 316.332 361.321C316.491 360.858 316.795 360.458 317.197 360.179L325.348 354.544V350.867L333.921 351.379L335.002 364.367Z" fill="#2F2E41"/>
<path d="M383.341 351.356L378.041 352.507L371.085 332.589L378.907 330.89L383.341 351.356Z" fill="#9E616A"/>
<path d="M388.375 360.812L384.614 361.629L383.173 358.22L382.224 362.148L372.249 364.314C371.771 364.418 371.273 364.366 370.826 364.166C370.379 363.966 370.008 363.629 369.767 363.203C369.526 362.776 369.427 362.284 369.485 361.798C369.542 361.312 369.754 360.857 370.089 360.499L376.861 353.262L376.082 349.668L384.568 348.349L388.375 360.812Z" fill="#2F2E41"/>
<path d="M421.536 364.367C421.536 364.45 421.52 364.532 421.488 364.609C421.456 364.686 421.41 364.756 421.351 364.815C421.292 364.874 421.222 364.921 421.145 364.952C421.068 364.984 420.986 365 420.903 365H271.909C271.741 365 271.58 364.933 271.462 364.814C271.343 364.696 271.276 364.535 271.276 364.367C271.276 364.199 271.343 364.038 271.462 363.919C271.58 363.8 271.741 363.733 271.909 363.733H420.903C420.986 363.733 421.068 363.749 421.145 363.781C421.222 363.813 421.292 363.859 421.351 363.918C421.41 363.977 421.456 364.047 421.488 364.124C421.52 364.201 421.536 364.283 421.536 364.367Z" fill="#055965"/>
<path d="M315.278 260.51C319.084 281.451 320.036 290.493 320.036 290.493C320.036 290.493 317.181 293.825 319.084 295.73C320.987 297.635 319.084 301.44 319.084 301.44L323.363 347.607L326.808 347.048L335.106 345.712L338.098 345.228L336.195 301.919C336.195 301.919 338.098 298.109 337.147 297.156C336.195 296.203 338.098 290.493 338.098 290.493L340.475 245.279L355.215 294.777C355.215 294.777 353.785 296.682 355.215 298.109C356.64 299.535 359.489 306.677 359.489 306.677L368.254 337.384L368.999 339.991L373.57 339.135L378.546 338.198L379.46 338.028L381.087 337.719L382.134 337.522L382.49 337.458L384.212 337.134L383.691 334.819L383.42 333.6L376.005 300.626L375.835 299.865L375.654 299.061C375.654 299.061 376.605 296.682 375.181 295.251C374.764 294.815 374.46 294.283 374.294 293.703C374.128 293.122 374.106 292.51 374.229 291.919C374.276 291.87 374.319 291.816 374.357 291.76C374.525 291.529 374.641 291.263 374.697 290.983C374.825 290.387 374.713 289.551 373.751 288.588C373.48 288.3 373.253 287.973 373.076 287.619C371.63 284.879 370.902 279.073 370.902 279.073C370.902 279.073 369.615 233.087 365.405 226.062C365.182 225.695 360.713 218.645 360.479 218.502C355.727 215.649 316.511 219.589 316.511 219.589C316.511 219.589 314.268 225.62 314.167 226.248C313.62 229.777 312.051 242.746 315.278 260.51Z" fill="#2F2E41"/>
<path d="M315.501 247.394C315.952 246.903 316.289 246.319 316.49 245.684C316.691 245.049 316.75 244.377 316.663 243.716C316.577 243.055 316.347 242.421 315.989 241.859C315.631 241.297 315.155 240.82 314.593 240.463L318.325 224.699L310.427 227.588L308.094 242.114C307.556 243.099 307.397 244.247 307.648 245.34C307.899 246.434 308.542 247.397 309.455 248.048C310.368 248.699 311.488 248.992 312.602 248.871C313.717 248.75 314.748 248.225 315.501 247.394V247.394Z" fill="#9E616A"/>
<path d="M321.816 151.414C321.816 151.414 325.727 145.579 333.425 137.872C337.501 136.512 344.562 137.305 347.01 137.872C358.331 152.833 359.043 151.839 361.99 160.198C362.754 162.365 363.136 164.448 362.797 166.148C361.438 172.948 363.616 207.307 364.069 209.121C364.522 210.934 367.691 213.201 364.522 213.201C361.352 213.201 313.352 211.387 314.257 210.027C315.163 208.667 321.816 151.414 321.816 151.414Z" fill="#E6E7E8"/>
<path d="M326.344 151.414H321.816C321.816 151.414 316.834 155.041 317.287 159.121C317.74 163.201 312.306 198.563 312.306 203.096C312.306 207.63 310.495 208.99 310.495 211.71C310.495 214.43 311.4 216.243 310.495 217.603C309.589 218.963 307.778 227.124 308.231 230.297C308.494 232.405 308.494 234.537 308.231 236.644H316.382C316.382 236.644 324.533 208.99 326.344 207.63C327.121 207.036 327.764 206.285 328.233 205.426C328.701 204.567 328.983 203.618 329.061 202.643C329.061 201.283 328.155 201.283 330.419 199.469C332.684 197.656 331.325 189.496 331.325 189.496L334.495 181.335L326.344 151.414Z" fill="#E6E7E8"/>
<path d="M335.645 132.07C342.887 132.07 348.757 126.193 348.757 118.942C348.757 111.692 342.887 105.815 335.645 105.815C328.403 105.815 322.532 111.692 322.532 118.942C322.532 126.193 328.403 132.07 335.645 132.07Z" fill="#9E616A"/>
<path d="M326.461 143.544L325.23 138.147C324.826 136.34 324.787 134.471 325.115 132.65C325.444 130.828 326.133 129.091 327.142 127.54C328.07 126.078 328.587 124.392 328.639 122.661C328.691 120.93 328.276 119.217 327.438 117.701C326.011 115.101 323.55 113.548 320.853 113.548H320.526V113.221C320.526 108.513 324.19 105.191 327.597 105.001C327.72 104.021 328.414 103.143 329.621 102.446C332.506 100.781 338.083 100.42 342.297 102.639C342.374 101.921 342.645 101.238 343.079 100.662C343.513 100.086 344.095 99.6383 344.763 99.3663C345.455 99.1253 346.201 99.0824 346.916 99.2424C346.978 98.0623 347.464 96.9446 348.286 96.0964C349.449 94.9677 351.316 94.5388 353.407 94.9171C356.279 95.4389 359.11 97.2706 361.378 100.075C363.389 102.562 364.785 105.493 366.135 108.326C367.463 111.114 368.835 113.996 370.825 116.436C373.005 119.109 375.707 120.841 378.432 121.313C381.609 121.864 384.871 120.554 386.363 118.129L386.66 117.647L386.93 118.144C388.606 121.228 387.92 125.467 385.298 128.222C382.947 130.693 379.257 131.951 375.43 131.586C372.191 131.278 368.923 129.899 365.719 127.49C362.535 125.097 360.567 122.451 359.867 119.627C359.672 118.753 359.531 117.868 359.447 116.976C359.23 115.109 359.026 113.345 357.878 112.046C356.847 110.879 355.251 110.373 353.835 109.991L353.558 109.916C353.507 110.442 353.342 110.951 353.075 111.406C352.808 111.862 352.445 112.254 352.011 112.555C351.75 112.712 351.464 112.822 351.166 112.881C352.806 119.492 352.132 124.555 349.158 127.93C344.14 133.627 334.495 132.455 334.087 132.403L333.816 132.368L333.802 132.094C333.765 131.36 333.676 130.629 333.534 129.907C332.152 133.239 327.506 142.05 326.884 142.939L326.461 143.544Z" fill="#2F2E41"/>
</g>
<defs>
<clipPath id="clip0_283_96">
<rect width="431" height="365" fill="white"/>
</clipPath>
</defs>
</svg>
