<svg width="614" height="463" viewBox="0 0 614 463" fill="none" xmlns="http://www.w3.org/2000/svg">
<g clip-path="url(#clip0_215_139)">
<path d="M558.949 241.418C550.671 266.888 539.137 290.962 524.687 312.931C524.355 313.442 524.016 313.941 523.676 314.449L479.835 298.998C480.033 298.505 480.249 297.954 480.48 297.351C494.287 261.81 577.379 45.1662 568.556 0C569.398 3.70881 596.928 126.412 558.949 241.418Z" fill="#0A7988"/>
<path d="M533.145 315.912C532.61 316.351 532.059 316.785 531.502 317.207L498.614 305.616C499.007 305.221 499.465 304.754 499.992 304.227C508.601 295.47 534.178 269.233 558.949 241.418C585.569 211.527 611.266 179.82 614 166.031C613.486 169.177 597.266 264.895 533.145 315.912Z" fill="#038C9F"/>
<path d="M582.689 463H18.904C13.8904 463 9.08205 460.833 5.53686 456.975C1.99167 453.116 0 447.884 0 442.428C204.372 416.58 404.903 416.58 601.593 442.428C601.593 447.884 599.601 453.116 596.056 456.975C592.511 460.833 587.703 463 582.689 463Z" fill="#2F2E41"/>
<path d="M601.593 443.638L0 442.428L69.7225 314.758L70.0561 314.153V32.7834C70.0559 29.3682 70.6738 25.9864 71.8746 22.8311C73.0755 19.6757 74.8357 16.8088 77.0548 14.3938C79.2738 11.9789 81.9083 10.0633 84.8078 8.75652C87.7072 7.4497 90.8147 6.77724 93.953 6.77753H504.304C507.442 6.77724 510.55 7.44971 513.449 8.75653C516.349 10.0634 518.983 11.9789 521.202 14.3938C523.421 16.8088 525.181 19.6757 526.382 22.8311C527.583 25.9864 528.201 29.3682 528.201 32.7834V316.089L601.593 443.638Z" fill="#3F3D56"/>
<path d="M93.4082 24.9296C91.3444 24.9321 89.3659 25.8254 87.9066 27.4134C86.4473 29.0015 85.6265 31.1547 85.6241 33.4005V289.95C85.6266 292.196 86.4474 294.349 87.9067 295.937C89.366 297.525 91.3444 298.418 93.4082 298.421H508.185C510.249 298.418 512.227 297.525 513.686 295.937C515.145 294.349 515.966 292.196 515.969 289.95V33.4005C515.966 31.1547 515.146 29.0016 513.686 27.4136C512.227 25.8255 510.249 24.9322 508.185 24.9296H93.4082Z" fill="white"/>
<path d="M96.1341 332.305C95.4964 332.306 94.8723 332.506 94.3353 332.88C93.7983 333.254 93.3708 333.788 93.1032 334.418L71.6196 385.244C71.3857 385.797 71.2834 386.405 71.3221 387.013C71.3608 387.62 71.5393 388.207 71.841 388.72C72.1428 389.232 72.5583 389.654 73.0491 389.946C73.5399 390.239 74.0904 390.392 74.6499 390.392H526.44C527.009 390.392 527.568 390.234 528.065 389.932C528.561 389.631 528.979 389.196 529.278 388.67C529.577 388.143 529.747 387.542 529.772 386.924C529.798 386.306 529.678 385.691 529.423 385.138L506.071 334.312C505.796 333.708 505.37 333.199 504.843 332.845C504.316 332.49 503.708 332.303 503.088 332.305L96.1341 332.305Z" fill="#2F2E41"/>
<path d="M299.128 20.6941C301.892 20.6941 304.132 18.256 304.132 15.2485C304.132 12.2409 301.892 9.80286 299.128 9.80286C296.365 9.80286 294.124 12.2409 294.124 15.2485C294.124 18.256 296.365 20.6941 299.128 20.6941Z" fill="white"/>
<path d="M254.721 400.073C253.988 400.074 253.275 400.337 252.693 400.823C252.111 401.308 251.692 401.989 251.5 402.759L246.111 424.541C245.978 425.079 245.96 425.644 246.06 426.19C246.159 426.737 246.373 427.251 246.684 427.694C246.996 428.136 247.396 428.495 247.856 428.741C248.315 428.988 248.82 429.116 249.332 429.116H351.818C352.35 429.116 352.874 428.978 353.347 428.712C353.82 428.447 354.227 428.063 354.535 427.591C354.844 427.12 355.044 426.575 355.12 426.002C355.195 425.429 355.144 424.845 354.97 424.298L348.041 402.516C347.814 401.802 347.389 401.184 346.824 400.746C346.259 400.308 345.582 400.073 344.889 400.073L254.721 400.073Z" fill="#2F2E41"/>
<path d="M528.201 309.917V314.758H69.7222L70.0676 314.153V309.917H528.201Z" fill="#2F2E41"/>
<path d="M385.661 70.2565H277.487V72.4067H385.661C390.987 72.4067 396.094 74.709 399.86 78.8072C403.626 82.9055 405.742 88.4638 405.742 94.2595C405.742 100.055 403.626 105.614 399.86 109.712C396.094 113.81 390.987 116.112 385.661 116.112H221.975C216.65 116.112 211.542 113.81 207.776 109.712C204.01 105.614 201.895 100.055 201.895 94.2595C201.895 88.4638 204.01 82.9055 207.776 78.8072C211.542 74.709 216.65 72.4067 221.975 72.4067H228.092V70.2565H221.975C216.128 70.2603 210.521 72.7908 206.388 77.2918C202.254 81.7928 199.932 87.896 199.932 94.2595C199.932 100.623 202.254 106.726 206.388 111.227C210.521 115.728 216.128 118.259 221.975 118.263H385.661C388.559 118.264 391.428 117.645 394.106 116.439C396.783 115.234 399.216 113.466 401.266 111.237C403.315 109.008 404.941 106.361 406.05 103.448C407.16 100.535 407.73 97.4128 407.73 94.2595C407.73 91.1062 407.16 87.9838 406.05 85.0707C404.941 82.1576 403.315 79.511 401.266 77.2819C399.216 75.0528 396.783 73.285 394.106 72.0796C391.428 70.8742 388.559 70.2547 385.661 70.2565V70.2565Z" fill="#E6E6E6"/>
<path d="M385.661 144.437H277.487V146.587H385.661C390.985 146.591 396.089 148.895 399.852 152.993C403.615 157.09 405.729 162.647 405.729 168.44C405.729 174.234 403.615 179.79 399.852 183.888C396.089 187.986 390.985 190.29 385.661 190.293H221.975C216.65 190.293 211.542 187.991 207.776 183.893C204.01 179.794 201.895 174.236 201.895 168.44C201.895 162.644 204.01 157.086 207.776 152.988C211.542 148.89 216.65 146.587 221.975 146.587H228.092V144.437H221.975C216.128 144.441 210.521 146.971 206.388 151.472C202.254 155.974 199.932 162.077 199.932 168.44C199.932 174.804 202.254 180.907 206.388 185.408C210.521 189.909 216.128 192.439 221.975 192.443H385.661C388.559 192.445 391.428 191.826 394.106 190.62C396.783 189.415 399.216 187.647 401.266 185.418C403.315 183.189 404.941 180.542 406.05 177.629C407.16 174.716 407.73 171.594 407.73 168.44C407.73 165.287 407.16 162.165 406.05 159.251C404.941 156.338 403.315 153.692 401.266 151.463C399.216 149.233 396.783 147.466 394.106 146.26C391.428 145.055 388.559 144.435 385.661 144.437V144.437Z" fill="#E6E6E6"/>
<path d="M385.661 218.618H277.487V220.768H385.661C390.987 220.768 396.094 223.07 399.86 227.169C403.626 231.267 405.742 236.825 405.742 242.621C405.742 248.417 403.626 253.975 399.86 258.073C396.094 262.171 390.987 264.474 385.661 264.474H221.975C216.65 264.474 211.542 262.171 207.776 258.073C204.01 253.975 201.895 248.417 201.895 242.621C201.895 236.825 204.01 231.267 207.776 227.169C211.542 223.07 216.65 220.768 221.975 220.768H228.092V218.618H221.975C216.126 218.618 210.516 221.147 206.379 225.648C202.243 230.15 199.919 236.255 199.919 242.621C199.919 248.987 202.243 255.092 206.379 259.594C210.516 264.095 216.126 266.624 221.975 266.624H385.661C388.558 266.624 391.426 266.003 394.102 264.797C396.778 263.59 399.209 261.822 401.257 259.594C403.305 257.365 404.93 254.719 406.039 251.806C407.147 248.894 407.718 245.773 407.718 242.621C407.718 239.469 407.147 236.347 406.039 233.435C404.93 230.523 403.305 227.877 401.257 225.648C399.209 223.419 396.778 221.651 394.102 220.445C391.426 219.239 388.558 218.618 385.661 218.618V218.618Z" fill="#E6E6E6"/>
<path d="M240.302 64.5761C238.761 64.6034 237.291 65.2888 236.21 66.4847C235.129 67.6806 234.523 69.291 234.523 70.9686C234.523 72.6462 235.129 74.2567 236.21 75.4525C237.291 76.6484 238.761 77.3339 240.302 77.3611H266.072C266.844 77.3749 267.61 77.2232 268.328 76.9147C269.045 76.6061 269.7 76.1468 270.254 75.563C270.809 74.9791 271.252 74.2822 271.559 73.5119C271.866 72.7416 272.03 71.913 272.043 71.0736C272.056 70.2341 271.916 69.4001 271.633 68.6193C271.349 67.8384 270.927 67.126 270.391 66.5227C269.854 65.9193 269.214 65.4369 268.506 65.1029C267.798 64.7689 267.037 64.5899 266.265 64.5761C266.201 64.575 266.137 64.575 266.072 64.5761H240.302Z" fill="#3F3D56"/>
<path d="M240.302 139.832C238.761 139.859 237.291 140.545 236.21 141.74C235.129 142.936 234.523 144.547 234.523 146.224C234.523 147.902 235.129 149.512 236.21 150.708C237.291 151.904 238.761 152.59 240.302 152.617H266.072C267.63 152.645 269.135 151.998 270.254 150.819C271.374 149.64 272.017 148.025 272.043 146.329C272.069 144.634 271.474 142.997 270.391 141.778C269.307 140.56 267.823 139.86 266.265 139.832C266.201 139.831 266.137 139.831 266.072 139.832H240.302Z" fill="#3F3D56"/>
<path d="M240.302 212.938C238.761 212.965 237.291 213.65 236.21 214.846C235.129 216.042 234.523 217.652 234.523 219.33C234.523 221.008 235.129 222.618 236.21 223.814C237.291 225.01 238.761 225.695 240.302 225.722H266.072C267.63 225.75 269.135 225.104 270.254 223.924C271.374 222.745 272.017 221.13 272.043 219.435C272.068 217.74 271.474 216.103 270.391 214.884C269.307 213.666 267.823 212.965 266.265 212.938C266.201 212.936 266.137 212.936 266.072 212.938H240.302Z" fill="#3F3D56"/>
<path d="M230.081 87.867C228.54 87.8943 227.07 88.5797 225.989 89.7756C224.908 90.9715 224.302 92.5819 224.302 94.2595C224.302 95.9372 224.908 97.5476 225.989 98.7434C227.07 99.9393 228.54 100.625 230.081 100.652H377.363C378.134 100.666 378.9 100.514 379.618 100.206C380.335 99.897 380.99 99.4378 381.544 98.8539C382.099 98.2701 382.542 97.5731 382.849 96.8028C383.156 96.0325 383.32 95.2039 383.333 94.3645C383.346 93.525 383.206 92.691 382.923 91.9102C382.639 91.1293 382.217 90.4169 381.681 89.8136C381.144 89.2102 380.504 88.7278 379.796 88.3938C379.088 88.0598 378.327 87.8808 377.555 87.867C377.491 87.8659 377.427 87.8659 377.363 87.867H230.081Z" fill="#5EBCF1"/>
<path d="M230.081 162.048C228.54 162.075 227.07 162.761 225.989 163.957C224.908 165.152 224.302 166.763 224.302 168.44C224.302 170.118 224.908 171.728 225.989 172.924C227.07 174.12 228.54 174.805 230.081 174.833H377.363C378.134 174.847 378.9 174.695 379.618 174.386C380.335 174.078 380.99 173.618 381.544 173.035C382.099 172.451 382.542 171.754 382.849 170.984C383.156 170.213 383.32 169.385 383.333 168.545C383.346 167.706 383.206 166.872 382.923 166.091C382.639 165.31 382.217 164.598 381.681 163.994C381.144 163.391 380.504 162.909 379.796 162.575C379.088 162.241 378.327 162.062 377.555 162.048C377.491 162.047 377.427 162.047 377.363 162.048H230.081Z" fill="#5EBCF1"/>
<path d="M230.081 236.228C228.54 236.256 227.07 236.941 225.989 238.137C224.908 239.333 224.302 240.943 224.302 242.621C224.302 244.298 224.908 245.909 225.989 247.105C227.07 248.3 228.54 248.986 230.081 249.013H377.363C378.134 249.027 378.9 248.875 379.618 248.567C380.335 248.258 380.99 247.799 381.544 247.215C382.099 246.631 382.542 245.934 382.849 245.164C383.156 244.394 383.32 243.565 383.333 242.726C383.346 241.886 383.206 241.052 382.923 240.272C382.639 239.491 382.217 238.778 381.681 238.175C381.144 237.572 380.504 237.089 379.796 236.755C379.088 236.421 378.327 236.242 377.555 236.228C377.491 236.227 377.427 236.227 377.363 236.228H230.081Z" fill="#E6E6E6"/>
<path d="M175.379 106.558C181.876 106.558 187.143 100.826 187.143 93.756C187.143 86.6858 181.876 80.9543 175.379 80.9543C168.882 80.9543 163.616 86.6858 163.616 93.756C163.616 100.826 168.882 106.558 175.379 106.558Z" fill="#5EBCF1"/>
<path d="M174.288 99.0155L170.861 94.2204L172.854 92.5334L174.477 94.8037L179.958 88.5067L181.792 90.3969L174.288 99.0155Z" fill="white"/>
<path d="M175.379 180.738C181.876 180.738 187.143 175.007 187.143 167.937C187.143 160.867 181.876 155.135 175.379 155.135C168.882 155.135 163.616 160.867 163.616 167.937C163.616 175.007 168.882 180.738 175.379 180.738Z" fill="#5EBCF1"/>
<path d="M174.288 173.196L170.861 168.401L172.854 166.714L174.477 168.985L179.958 162.688L181.792 164.578L174.288 173.196Z" fill="white"/>
<path d="M175.379 254.919C181.876 254.919 187.143 249.188 187.143 242.117C187.143 235.047 181.876 229.316 175.379 229.316C168.882 229.316 163.616 235.047 163.616 242.117C163.616 249.188 168.882 254.919 175.379 254.919Z" fill="#E6E6E6"/>
<path d="M433.22 106.558C439.717 106.558 444.984 100.826 444.984 93.756C444.984 86.6858 439.717 80.9543 433.22 80.9543C426.724 80.9543 421.457 86.6858 421.457 93.756C421.457 100.826 426.724 106.558 433.22 106.558Z" fill="#E6E6E6"/>
<path d="M433.22 180.738C439.717 180.738 444.984 175.007 444.984 167.937C444.984 160.867 439.717 155.135 433.22 155.135C426.724 155.135 421.457 160.867 421.457 167.937C421.457 175.007 426.724 180.738 433.22 180.738Z" fill="#E6E6E6"/>
<path d="M433.22 254.919C439.717 254.919 444.984 249.188 444.984 242.117C444.984 235.047 439.717 229.316 433.22 229.316C426.724 229.316 421.457 235.047 421.457 242.117C421.457 249.188 426.724 254.919 433.22 254.919Z" fill="#E6E6E6"/>
<path d="M174.288 247.377L170.861 242.582L172.854 240.895L174.477 243.165L179.958 236.868L181.792 238.758L174.288 247.377Z" fill="white"/>
<path d="M430.248 89.644L429.269 90.7095L435.847 97.8679L436.826 96.8024L430.248 89.644Z" fill="white"/>
<path d="M436.193 89.644L429.615 96.8024L430.594 97.8679L437.172 90.7095L436.193 89.644Z" fill="white"/>
<path d="M430.248 163.825L429.269 164.89L435.847 172.049L436.826 170.983L430.248 163.825Z" fill="white"/>
<path d="M436.193 163.825L429.615 170.983L430.594 172.049L437.172 164.89L436.193 163.825Z" fill="white"/>
<path d="M430.248 238.005L429.269 239.071L435.847 246.229L436.826 245.164L430.248 238.005Z" fill="white"/>
<path d="M436.193 238.005L429.615 245.164L430.594 246.229L437.172 239.071L436.193 238.005Z" fill="white"/>
<path d="M177.642 236.989C178.667 236.252 179.532 235.281 180.179 234.144C180.825 233.007 181.237 231.731 181.387 230.404C181.536 229.077 181.42 227.731 181.045 226.458C180.67 225.185 180.045 224.015 179.215 223.03L167.922 209.634L157.075 215.611L165.377 233.455C165.919 234.619 166.68 235.644 167.611 236.465C168.543 237.285 169.623 237.882 170.781 238.216C171.94 238.549 173.15 238.613 174.332 238.401C175.515 238.19 176.643 237.709 177.642 236.989V236.989Z" fill="#FFB8B8"/>
<path d="M31.6622 276.773C32.8824 276.619 34.0573 276.178 35.106 275.482C36.1546 274.786 37.0519 273.85 37.7361 272.74C38.4203 271.629 38.875 270.371 39.0689 269.05C39.2628 267.73 39.1913 266.38 38.8593 265.093L34.3447 247.59H22.1867V267.591C22.1867 268.895 22.4402 270.185 22.9306 271.374C23.4211 272.564 24.1372 273.628 25.0322 274.495C25.9271 275.362 26.9805 276.013 28.1231 276.406C29.2658 276.799 30.4719 276.924 31.6622 276.773V276.773Z" fill="#FFB8B8"/>
<path d="M101.889 408.812L124.855 404.892L115.398 394.111H101.889V408.812Z" fill="#FFB8B8"/>
<path d="M28.0405 409.792L51.9062 416.653C47.5105 406.729 44.8037 397.949 46.5027 392.151L35.2453 390.681L28.0405 409.792Z" fill="#FFB8B8"/>
<path d="M32.9935 393.131L46.9531 396.071L85.2282 261.801L101.439 395.581H116.299L114.947 206.427H57.3097L32.9935 393.131Z" fill="#575A88"/>
<path d="M106.286 414.763L129.002 406.631C129.605 406.415 130.157 406.061 130.623 405.592C131.088 405.123 131.456 404.55 131.7 403.912C131.944 403.275 132.059 402.588 132.037 401.898C132.015 401.208 131.857 400.531 131.573 399.914V399.914C131.183 399.066 130.572 398.362 129.816 397.891C129.06 397.42 128.193 397.203 127.324 397.267L122.171 397.646L120.151 396.409C119.938 396.279 119.694 396.224 119.451 396.252C119.208 396.28 118.979 396.39 118.797 396.566C118.614 396.742 118.486 396.975 118.431 397.234C118.376 397.493 118.396 397.764 118.489 398.01L120.351 402.932L101.439 401.462L100.506 409.585C100.413 410.392 100.509 411.211 100.786 411.966C101.062 412.722 101.509 413.389 102.086 413.905C102.663 414.422 103.35 414.772 104.085 414.922C104.819 415.071 105.576 415.017 106.286 414.763V414.763Z" fill="#575A88"/>
<path d="M29.5077 418.501L54.2011 420.243C54.8562 420.29 55.5128 420.182 56.1262 419.927C56.7396 419.672 57.2954 419.277 57.7558 418.768C58.2162 418.258 58.5704 417.647 58.7943 416.976C59.0182 416.304 59.1066 415.588 59.0534 414.876C58.9804 413.898 58.6433 412.965 58.0847 412.196C57.526 411.426 56.7706 410.853 55.9136 410.549L50.8324 408.746L49.3328 406.71C49.1748 406.496 48.9593 406.34 48.7163 406.265C48.4733 406.19 48.2149 406.199 47.9769 406.291C47.7389 406.383 47.5331 406.554 47.3883 406.779C47.2435 407.004 47.1668 407.273 47.1688 407.548L47.2096 413.056L29.576 403.695L25.7967 411.101C25.4214 411.836 25.2231 412.663 25.2203 413.505C25.2175 414.346 25.4102 415.174 25.7805 415.913C26.1508 416.651 26.6867 417.276 27.3384 417.728C27.99 418.181 28.7363 418.447 29.5077 418.501V418.501Z" fill="#575A88"/>
<path d="M82.076 100.579C91.2776 100.579 98.737 92.4617 98.737 82.448C98.737 72.4344 91.2776 64.3167 82.076 64.3167C72.8745 64.3167 65.4151 72.4344 65.4151 82.448C65.4151 92.4617 72.8745 100.579 82.076 100.579Z" fill="#FFB8B8"/>
<path d="M71.269 115.771H94.2341V91.7587H71.269C73.1668 99.1744 72.9214 107.254 71.269 115.771Z" fill="#FFB8B8"/>
<path d="M54.1577 208.877L117.199 209.857L123.503 137.378C123.503 132.649 122.142 128.039 119.612 124.195C117.081 120.351 113.507 117.466 109.393 115.946L99.6376 112.34L94.2341 105.48C87.4118 103.875 79.989 104.264 72.1696 105.97L66.3157 115.28L60.0119 117.47C55.7281 118.958 52.0048 121.921 49.4034 125.912C46.802 129.904 45.4635 134.708 45.5898 139.599C50.2805 165.966 53.9279 190.471 54.1577 208.877Z" fill="#5EBCF1"/>
<path d="M19.9352 247.59L35.6956 249.55L53.7074 170.655L55.5086 119.691L54.9768 119.971C50.8078 122.166 47.1659 125.388 44.3394 129.38C41.513 133.373 39.5797 138.027 38.6927 142.974L19.9352 247.59Z" fill="#5EBCF1"/>
<path d="M157.726 218.188L169.884 211.818L134.223 139.403C129.044 128.886 120.625 120.692 110.445 116.26V116.26L117.199 162.324L157.726 218.188Z" fill="#5EBCF1"/>
<path d="M71.7785 98.7672C71.7785 98.7672 88.1161 97.7128 88.4698 94.6375C88.8235 91.5622 91.2088 84.547 94.0347 84.9319C96.8606 85.3168 104.692 75.0649 103.015 70.9322C101.338 66.7994 93.4212 51.5837 77.2594 58.5966C61.0977 65.6095 62.9497 83.1969 64.627 87.3296C66.3044 91.4624 71.7785 98.7672 71.7785 98.7672Z" fill="#2F2E41"/>
<path d="M471.611 321.006C471.432 321.006 471.258 321.07 471.117 321.188C470.975 321.307 470.873 321.472 470.826 321.66L469.514 326.964C469.481 327.095 469.477 327.233 469.501 327.366C469.526 327.499 469.578 327.624 469.653 327.732C469.729 327.84 469.827 327.927 469.939 327.987C470.051 328.047 470.174 328.078 470.298 328.078H495.255C495.385 328.078 495.512 328.045 495.627 327.98C495.742 327.915 495.842 327.822 495.917 327.707C495.992 327.592 496.041 327.459 496.059 327.32C496.077 327.18 496.065 327.038 496.023 326.905L494.335 321.601C494.28 321.427 494.176 321.276 494.039 321.17C493.901 321.063 493.737 321.006 493.568 321.006H471.611Z" fill="#5EBCF1"/>
<path d="M435.17 321.006C434.992 321.006 434.818 321.07 434.677 321.188C434.535 321.307 434.433 321.472 434.386 321.66L433.074 326.964C433.041 327.095 433.037 327.233 433.061 327.366C433.085 327.499 433.137 327.624 433.213 327.732C433.289 327.84 433.387 327.927 433.499 327.987C433.61 328.047 433.733 328.078 433.858 328.078H458.815C458.944 328.078 459.072 328.045 459.187 327.98C459.302 327.915 459.402 327.822 459.477 327.707C459.552 327.592 459.601 327.459 459.619 327.32C459.637 327.18 459.625 327.038 459.582 326.905L457.895 321.601C457.84 321.427 457.736 321.276 457.599 321.17C457.461 321.063 457.296 321.006 457.128 321.006H435.17Z" fill="#5EBCF1"/>
</g>
<defs>
<clipPath id="clip0_215_139">
<rect width="614" height="463" fill="white"/>
</clipPath>
</defs>
</svg>
